<?xml version="1.0" standalone="no"?>
<!DOCTYPE svg PUBLIC "-//W3C//DTD SVG 20010904//EN"
 "http://www.w3.org/TR/2001/REC-SVG-20010904/DTD/svg10.dtd">
<svg version="1.0" xmlns="http://www.w3.org/2000/svg"
 width="2000.000000pt" height="2000.000000pt" viewBox="0 0 2000.000000 2000.000000"
 preserveAspectRatio="xMidYMid meet">
<metadata>
Created by potrace 1.14, written by Peter Selinger 2001-2017
</metadata>
<g transform="translate(0.000000,2000.000000) scale(0.100000,-0.100000)"
fill="#000000" stroke="none">
<path d="M0 10000 l0 -10000 10000 0 10000 0 0 10000 0 10000 -10000 0 -10000
0 0 -10000z m19985 0 l0 -9985 -9985 0 -9985 0 -3 9975 c-1 5486 0 9981 3
9988 3 10 2006 12 9987 10 l9983 -3 0 -9985z"/>
<path d="M13624 11331 c-128 -21 -242 -80 -325 -169 -100 -106 -138 -227 -118
-369 13 -94 50 -163 133 -250 81 -86 141 -127 373 -254 289 -158 373 -225 426
-337 26 -56 29 -71 26 -140 -5 -94 -36 -165 -103 -233 -79 -79 -182 -118 -312
-119 -126 0 -245 52 -344 151 -88 88 -126 160 -161 307 -7 30 -15 42 -28 42
-22 0 -31 -26 -31 -90 0 -25 -5 -111 -12 -192 -14 -174 -16 -170 97 -217 136
-57 231 -74 415 -75 187 -1 259 12 369 67 126 62 237 203 276 353 17 66 19
198 4 263 -28 122 -112 231 -247 318 -45 29 -167 99 -270 154 -310 168 -396
231 -435 318 -76 171 72 373 290 398 237 28 402 -81 478 -317 32 -98 48 -87
59 38 4 57 5 136 1 176 l-6 73 -67 35 c-37 20 -92 44 -122 53 -63 19 -287 28
-366 16z"/>
<path d="M14718 11312 c-30 -18 -58 -67 -58 -100 0 -68 56 -122 126 -122 102
0 167 113 106 185 -47 56 -120 71 -174 37z"/>
<path d="M7703 11293 c-23 -4 -41 -43 -29 -61 3 -6 39 -13 78 -17 102 -9 204
-34 219 -51 7 -9 15 -73 20 -167 5 -84 13 -231 19 -327 5 -96 12 -350 14 -565
l5 -390 -42 46 c-23 25 -125 137 -227 249 -102 113 -268 295 -370 406 -102
110 -219 238 -261 285 -41 46 -178 198 -304 338 l-229 254 -105 -7 c-57 -3
-153 -6 -213 -6 l-108 0 0 -35 c0 -39 -6 -36 117 -56 81 -13 136 -41 166 -81
20 -26 21 -49 30 -505 10 -577 6 -1039 -11 -1070 -14 -25 -74 -46 -177 -63
-100 -16 -105 -18 -105 -47 l0 -26 208 7 c114 3 272 2 352 -3 79 -4 152 -6
162 -3 22 5 25 57 4 65 -12 5 -161 28 -268 42 -26 3 -51 11 -54 17 -8 13 -33
910 -33 1221 l-1 207 25 -16 c13 -9 109 -111 212 -228 103 -116 287 -318 408
-450 121 -131 264 -289 319 -350 54 -61 191 -208 305 -326 191 -200 208 -215
241 -215 l35 0 -2 440 c-1 242 -4 496 -7 565 -2 69 -10 269 -17 444 -11 300
-11 321 6 352 20 37 62 58 140 68 73 10 85 15 85 36 0 18 -10 19 -222 17 -123
-1 -254 1 -293 4 -38 4 -80 5 -92 2z"/>
<path d="M12597 11283 c-20 -3 -27 -10 -25 -21 2 -12 31 -26 90 -45 106 -34
109 -40 79 -165 -30 -122 -188 -566 -293 -827 -49 -121 -120 -301 -158 -400
-50 -131 -71 -174 -76 -160 -4 11 -38 90 -76 175 -38 85 -112 256 -165 378
l-97 224 17 41 c34 89 166 407 207 499 67 152 109 189 245 218 73 16 95 26 95
45 0 31 -38 35 -287 33 l-248 -3 -3 -22 c-2 -13 -2 -23 0 -23 2 0 29 -4 62
-10 146 -24 138 -69 -107 -622 -12 -27 -24 -48 -28 -48 -3 0 -16 21 -27 48
-11 26 -63 147 -116 270 -100 233 -125 307 -109 323 5 5 47 16 93 24 93 16
112 27 89 50 -12 12 -61 14 -342 8 -325 -6 -328 -6 -325 -27 3 -18 14 -22 91
-33 53 -7 96 -18 106 -27 23 -21 73 -126 262 -556 l157 -355 -20 -50 c-51
-131 -284 -595 -299 -595 -13 0 -438 1046 -530 1305 -22 61 -52 141 -66 179
-26 66 -27 69 -8 82 12 9 45 14 86 14 61 0 67 2 73 22 3 13 1 27 -5 33 -13 13
-492 20 -539 8 -57 -15 -50 -38 20 -57 33 -9 71 -27 84 -39 14 -13 43 -73 70
-142 157 -411 234 -606 356 -895 75 -179 179 -430 231 -557 l94 -233 35 0 c30
0 39 6 62 43 29 46 166 322 297 600 46 98 88 180 92 183 14 9 205 -387 335
-696 52 -124 53 -125 85 -125 l33 0 133 365 c73 201 193 523 267 715 74 193
155 406 179 475 56 157 89 230 113 252 11 9 50 31 87 48 48 23 67 37 67 51 0
18 -9 19 -164 19 -90 0 -183 2 -207 4 -24 2 -57 2 -72 -1z"/>
<path d="M8507 11258 c-8 -28 12 -36 108 -43 110 -8 151 -20 168 -48 9 -17 13
-209 15 -829 3 -796 3 -807 -17 -827 -11 -11 -39 -22 -63 -25 -218 -26 -227
-28 -214 -61 6 -15 33 -16 314 -11 422 9 946 16 1194 16 189 0 208 2 217 18 5
10 15 74 21 143 6 68 22 166 35 217 14 52 25 96 25 99 0 2 -12 3 -27 1 -24 -3
-36 -19 -98 -138 -120 -232 -170 -264 -435 -282 -185 -12 -630 -4 -659 12 -43
23 -45 38 -49 446 l-4 391 38 6 c22 4 173 7 336 7 391 2 364 15 442 -215 31
-91 46 -121 60 -124 18 -3 19 2 12 95 -4 55 -7 213 -7 352 l1 253 -22 -3 c-30
-4 -45 -37 -58 -129 -6 -40 -16 -86 -21 -100 -20 -52 -36 -54 -415 -57 l-352
-3 -7 233 c-10 324 -5 487 17 520 17 25 20 26 170 33 84 4 264 5 400 3 l247
-3 31 -30 c17 -17 58 -86 91 -155 79 -163 74 -155 89 -155 15 0 21 395 5 401
-5 2 -364 5 -797 7 -736 2 -787 1 -791 -15z"/>
<path d="M14811 10669 c-63 -70 -132 -118 -205 -144 -44 -17 -62 -28 -64 -43
-3 -17 6 -23 53 -36 30 -9 70 -30 88 -46 l32 -28 0 -389 c0 -418 -3 -440 -51
-462 -14 -6 -64 -20 -111 -30 -86 -20 -113 -36 -90 -57 8 -8 56 -9 162 -3 87
5 211 4 295 -1 195 -13 190 -13 190 8 0 14 -20 25 -87 46 -47 16 -97 39 -110
52 l-23 23 0 528 c0 290 0 552 0 581 0 68 -17 69 -79 1z"/>
<path d="M4120 10581 c-69 -72 -95 -92 -140 -109 -45 -16 -56 -24 -58 -45 -3
-22 2 -27 25 -32 15 -3 48 -14 73 -23 40 -16 46 -22 52 -57 4 -22 8 -194 8
-382 1 -412 1 -412 -109 -433 -65 -12 -91 -26 -91 -48 0 -16 24 -17 305 -17
l306 0 -3 25 c-3 23 -11 27 -92 47 -49 12 -96 29 -105 38 -22 21 -29 134 -30
476 l-1 277 56 52 c118 107 280 155 408 119 59 -16 127 -91 151 -164 18 -55
20 -88 19 -391 0 -393 5 -373 -106 -399 -110 -25 -128 -34 -128 -61 l0 -24
319 0 c264 0 320 2 324 14 11 28 -19 48 -93 62 -90 17 -117 34 -125 76 -3 18
-5 191 -3 385 l3 352 30 32 c48 50 134 111 188 131 56 21 153 25 215 9 63 -17
123 -69 157 -136 l30 -59 3 -360 c2 -279 -1 -367 -11 -386 -10 -20 -29 -29
-94 -46 -96 -26 -103 -29 -103 -55 0 -18 10 -19 265 -21 146 -1 273 -2 283 -2
11 -1 18 8 20 26 3 25 -1 28 -74 51 -45 14 -81 32 -88 43 -7 13 -13 148 -17
404 -6 425 -8 443 -72 536 -70 101 -182 150 -326 141 -129 -7 -227 -53 -355
-165 -33 -29 -62 -52 -65 -52 -3 0 -16 18 -29 41 -36 62 -85 112 -139 139 -43
23 -60 25 -174 25 l-126 0 -84 -42 c-46 -23 -123 -73 -171 -112 l-87 -70 -3
137 -3 137 -25 2 c-20 2 -43 -16 -110 -86z"/>
<path d="M16907 10597 c-67 -76 -121 -114 -189 -136 -30 -10 -38 -18 -38 -36
0 -20 8 -25 53 -35 94 -23 103 -31 111 -101 10 -103 7 -670 -5 -712 -12 -46
-50 -72 -116 -81 -51 -7 -73 -20 -73 -45 0 -14 30 -16 305 -16 304 0 305 0
305 21 0 24 -26 37 -105 54 -69 14 -102 29 -111 48 -4 10 -9 179 -12 377 l-4
360 54 51 c89 85 209 134 322 134 119 0 206 -66 242 -184 31 -103 27 -711 -5
-750 -7 -8 -44 -22 -84 -31 -127 -30 -138 -35 -135 -58 3 -22 4 -22 326 -25
l323 -2 -3 27 c-3 30 -14 35 -110 54 -32 5 -68 19 -80 29 l-23 18 -3 380 -3
380 67 61 c37 33 92 73 123 88 50 25 67 28 156 28 92 0 104 -2 148 -28 53 -31
100 -90 119 -146 13 -40 24 -665 13 -738 -7 -51 -23 -61 -132 -87 -56 -14 -72
-22 -77 -39 -3 -12 -4 -22 -3 -24 1 -1 131 -3 287 -4 l285 -1 3 26 c3 24 -1
27 -74 48 -68 20 -79 27 -91 55 -10 25 -13 111 -13 375 -1 359 -6 417 -47 508
-27 60 -96 128 -163 159 -78 36 -203 41 -297 13 -77 -24 -168 -79 -257 -155
-47 -41 -60 -48 -66 -36 -55 97 -132 168 -208 189 -56 15 -201 12 -261 -6 -68
-20 -175 -84 -261 -156 l-68 -57 -6 82 c-3 45 -5 107 -4 137 3 52 2 55 -22 58
-21 2 -38 -11 -93 -71z"/>
<path d="M1705 10614 c-11 -2 -45 -9 -75 -15 -240 -49 -398 -311 -334 -554 27
-107 83 -180 196 -256 70 -48 74 -42 -67 -94 -158 -59 -194 -99 -161 -178 17
-43 114 -118 199 -155 31 -14 57 -29 57 -33 0 -5 -28 -23 -62 -40 -143 -72
-227 -144 -271 -231 -34 -67 -34 -110 -1 -177 41 -82 144 -151 285 -191 96
-27 310 -37 434 -21 296 40 504 188 534 383 18 111 -30 236 -114 300 -77 59
-149 76 -384 93 -295 21 -413 46 -488 102 -44 32 -42 57 8 93 72 52 141 71
284 80 75 5 151 15 180 25 131 45 223 127 283 253 34 71 37 84 36 162 -1 79
-9 112 -50 214 -9 22 5 21 172 -14 94 -20 114 -22 128 -11 18 15 21 76 6 117
l-11 27 -117 -9 c-203 -15 -207 -14 -296 39 -43 26 -105 56 -136 67 -56 19
-196 33 -235 24z m179 -83 c61 -33 106 -89 137 -168 21 -51 23 -75 23 -203 0
-126 -2 -152 -22 -200 -46 -116 -128 -180 -241 -188 -198 -14 -324 166 -307
439 9 144 36 220 100 285 39 38 65 55 97 63 70 16 155 5 213 -28z m46 -1241
c170 -12 264 -36 316 -82 136 -119 77 -327 -119 -419 -144 -67 -356 -95 -495
-65 -140 29 -251 104 -289 193 -17 43 -19 126 -3 168 29 75 119 156 213 191
72 27 149 30 377 14z"/>
<path d="M2627 10573 c-50 -8 -28 -35 52 -63 86 -31 80 -21 155 -226 30 -82
118 -320 196 -529 157 -417 158 -423 120 -535 -31 -91 -125 -280 -157 -314
-26 -28 -27 -28 -102 -21 -111 12 -129 10 -156 -15 -32 -30 -40 -70 -21 -113
24 -59 89 -77 175 -50 67 21 115 66 168 158 46 80 64 124 277 695 340 908 338
902 373 926 17 12 59 27 93 33 54 11 61 15 58 34 -3 22 -3 22 -253 22 -216 0
-250 -2 -250 -15 0 -10 31 -25 93 -46 51 -17 98 -36 104 -42 16 -16 13 -80 -7
-166 -28 -119 -239 -702 -264 -728 -9 -10 -106 253 -225 607 -109 323 -110
304 11 324 119 20 123 21 123 42 0 10 -1 19 -2 19 -19 4 -541 6 -561 3z"/>
<path d="M15180 10547 c0 -22 8 -25 83 -42 127 -28 119 1 116 -394 -2 -366 3
-422 50 -525 68 -149 234 -219 391 -166 78 26 169 76 270 147 l75 53 6 -100
c3 -55 8 -103 12 -107 4 -3 62 10 130 30 67 20 155 44 195 52 113 26 92 65
-35 65 -100 0 -109 9 -116 117 -3 48 -1 263 3 476 5 213 6 395 3 403 -4 12
-41 14 -218 14 -220 0 -245 -3 -245 -25 0 -20 7 -22 112 -39 117 -19 146 -31
156 -65 4 -14 7 -185 7 -379 l0 -353 -40 -33 c-175 -148 -455 -166 -541 -36
-36 54 -44 186 -37 593 l6 337 -191 0 -192 0 0 -23z"/>
<path d="M4063 9078 c6 -19 12088 -19 12095 0 3 9 -1211 12 -6048 12 -4837 0
-6051 -3 -6047 -12z"/>
<path d="M6183 8848 c6 -19 7768 -19 7775 0 3 9 -779 12 -3888 12 -3109 0
-3891 -3 -3887 -12z"/>
</g>
</svg>
